%TF.GenerationSoftware,Altium Limited,Altium Designer,24.7.2 (38)*%
G04 Layer_Physical_Order=2*
G04 Layer_Color=16711680*
%FSLAX45Y45*%
%MOMM*%
%TF.SameCoordinates,2370CFE6-064A-4C8F-A3BC-26C693B17082*%
%TF.FilePolarity,Positive*%
%TF.FileFunction,Copper,L2,Bot,Signal*%
%TF.Part,Single*%
G01*
G75*
%TA.AperFunction,ComponentPad*%
%ADD11C,0.90000*%
%ADD12C,1.40000*%
%ADD13R,1.40000X1.40000*%
%ADD14C,1.70000*%
%ADD15R,1.70000X1.70000*%
%ADD16C,1.55000*%
%ADD17R,1.55000X1.55000*%
%TA.AperFunction,ViaPad*%
%ADD18C,3.00000*%
%TA.AperFunction,Conductor*%
%ADD19C,0.70000*%
%ADD20C,0.25500*%
%ADD21C,0.38100*%
G36*
X3300000Y3950000D02*
Y3004348D01*
X2957813D01*
X2946727Y3015434D01*
X2930674Y3024702D01*
X2912769Y3029500D01*
X2894232D01*
X2876327Y3024702D01*
X2860273Y3015434D01*
X2847166Y3002327D01*
X2837898Y2986273D01*
X2833100Y2968368D01*
Y2949832D01*
X2837898Y2931927D01*
X2847166Y2915873D01*
X2860273Y2902766D01*
X2876327Y2893498D01*
X2894232Y2888700D01*
X2912769D01*
X2930674Y2893498D01*
X2946727Y2902766D01*
X2959834Y2915873D01*
X2966000Y2926552D01*
X3300000D01*
Y2750348D01*
X2957813D01*
X2946727Y2761434D01*
X2930674Y2770702D01*
X2912769Y2775500D01*
X2894232D01*
X2876327Y2770702D01*
X2860273Y2761434D01*
X2847166Y2748327D01*
X2837898Y2732273D01*
X2833100Y2714368D01*
Y2695832D01*
X2837898Y2677927D01*
X2847166Y2661873D01*
X2860273Y2648766D01*
X2876327Y2639498D01*
X2894232Y2634700D01*
X2912769D01*
X2930674Y2639498D01*
X2946727Y2648766D01*
X2959834Y2661873D01*
X2966000Y2672552D01*
X3300000D01*
Y2235998D01*
X2962333D01*
X2959834Y2240327D01*
X2946727Y2253434D01*
X2930674Y2262702D01*
X2912769Y2267500D01*
X2894232D01*
X2876327Y2262702D01*
X2860273Y2253434D01*
X2847166Y2240327D01*
X2837898Y2224273D01*
X2833100Y2206368D01*
Y2187832D01*
X2837898Y2169927D01*
X2847166Y2153873D01*
X2860273Y2140766D01*
X2876327Y2131498D01*
X2894232Y2126700D01*
X2912769D01*
X2930674Y2131498D01*
X2946727Y2140766D01*
X2959834Y2153873D01*
X2962333Y2158202D01*
X3300000D01*
Y1981998D01*
X2962333D01*
X2959834Y1986327D01*
X2946727Y1999434D01*
X2930674Y2008702D01*
X2912769Y2013500D01*
X2894232D01*
X2876327Y2008702D01*
X2860273Y1999434D01*
X2847166Y1986327D01*
X2837898Y1970273D01*
X2833100Y1952368D01*
Y1933832D01*
X2837898Y1915927D01*
X2847166Y1899873D01*
X2860273Y1886766D01*
X2876327Y1877498D01*
X2894232Y1872700D01*
X2912769D01*
X2930674Y1877498D01*
X2946727Y1886766D01*
X2959834Y1899873D01*
X2962333Y1904202D01*
X3300000D01*
Y900000D01*
X2834783Y450000D01*
X600000D01*
X150000Y900000D01*
Y3950000D01*
X328146Y4150414D01*
X340017Y4145901D01*
Y1651000D01*
X344705Y1627433D01*
X358054Y1607454D01*
X549818Y1415691D01*
X551898Y1407927D01*
X561166Y1391873D01*
X574273Y1378766D01*
X590327Y1369498D01*
X608232Y1364700D01*
X626769D01*
X644674Y1369498D01*
X660727Y1378766D01*
X673834Y1391873D01*
X683103Y1407927D01*
X687900Y1425832D01*
Y1444368D01*
X683103Y1462273D01*
X673834Y1478327D01*
X660727Y1491434D01*
X644674Y1500702D01*
X636910Y1502783D01*
X463183Y1676509D01*
Y4254391D01*
X608792Y4400000D01*
X2175608D01*
X2292417Y4283191D01*
Y4016224D01*
X2286213Y4012642D01*
X2265658Y3992087D01*
X2251124Y3966913D01*
X2243601Y3938834D01*
Y3909766D01*
X2251124Y3881687D01*
X2265658Y3856513D01*
X2286213Y3835958D01*
X2311388Y3821424D01*
X2339466Y3813900D01*
X2368535D01*
X2396613Y3821424D01*
X2421788Y3835958D01*
X2442342Y3856513D01*
X2456877Y3881687D01*
X2464400Y3909766D01*
Y3938834D01*
X2456877Y3966913D01*
X2442342Y3992087D01*
X2421788Y4012642D01*
X2415584Y4016224D01*
Y4308700D01*
X2410896Y4332267D01*
X2397546Y4352246D01*
X2361526Y4388267D01*
X2366386Y4400000D01*
X2850000D01*
X3300000Y3950000D01*
D02*
G37*
%LPC*%
G36*
X1925600Y4341483D02*
X1087400D01*
X1063833Y4336795D01*
X1043854Y4323446D01*
X840654Y4120246D01*
X827305Y4100267D01*
X822617Y4076700D01*
Y1981309D01*
X598091Y1756783D01*
X590327Y1754702D01*
X574273Y1745434D01*
X561166Y1732327D01*
X551898Y1716273D01*
X548020Y1701800D01*
X617500D01*
Y1689100D01*
X630200D01*
Y1619620D01*
X644674Y1623498D01*
X660727Y1632766D01*
X673834Y1645873D01*
X683103Y1661927D01*
X685183Y1669691D01*
X927746Y1912254D01*
X941096Y1932233D01*
X945783Y1955800D01*
Y4051191D01*
X1112909Y4218317D01*
X1900091D01*
X2041817Y4076591D01*
Y4018187D01*
X2032213Y4012642D01*
X2011658Y3992087D01*
X1997124Y3966913D01*
X1989601Y3938834D01*
Y3937000D01*
X2210400D01*
Y3938834D01*
X2202877Y3966913D01*
X2188342Y3992087D01*
X2167788Y4012642D01*
X2164983Y4014261D01*
Y4102100D01*
X2160296Y4125667D01*
X2146946Y4145646D01*
X1969146Y4323446D01*
X1949167Y4336795D01*
X1925600Y4341483D01*
D02*
G37*
G36*
X2912769Y3283500D02*
X2894232D01*
X2876327Y3278702D01*
X2860273Y3269434D01*
X2847166Y3256327D01*
X2837898Y3240273D01*
X2833100Y3222368D01*
Y3203832D01*
X2837898Y3185927D01*
X2847166Y3169873D01*
X2860273Y3156766D01*
X2876327Y3147498D01*
X2894232Y3142700D01*
X2912769D01*
X2930674Y3147498D01*
X2946727Y3156766D01*
X2959834Y3169873D01*
X2969103Y3185927D01*
X2973900Y3203832D01*
Y3222368D01*
X2969103Y3240273D01*
X2959834Y3256327D01*
X2946727Y3269434D01*
X2930674Y3278702D01*
X2912769Y3283500D01*
D02*
G37*
G36*
X626769D02*
X608232D01*
X590327Y3278702D01*
X574273Y3269434D01*
X561166Y3256327D01*
X551898Y3240273D01*
X547100Y3222368D01*
Y3203832D01*
X551898Y3185927D01*
X561166Y3169873D01*
X574273Y3156766D01*
X590327Y3147498D01*
X608232Y3142700D01*
X626769D01*
X644674Y3147498D01*
X660727Y3156766D01*
X673834Y3169873D01*
X683103Y3185927D01*
X687900Y3203832D01*
Y3222368D01*
X683103Y3240273D01*
X673834Y3256327D01*
X660727Y3269434D01*
X644674Y3278702D01*
X626769Y3283500D01*
D02*
G37*
G36*
Y3029500D02*
X608232D01*
X590327Y3024702D01*
X574273Y3015434D01*
X561166Y3002327D01*
X551898Y2986273D01*
X547100Y2968368D01*
Y2949832D01*
X551898Y2931927D01*
X561166Y2915873D01*
X574273Y2902766D01*
X590327Y2893498D01*
X608232Y2888700D01*
X626769D01*
X644674Y2893498D01*
X660727Y2902766D01*
X673834Y2915873D01*
X683103Y2931927D01*
X687900Y2949832D01*
Y2968368D01*
X683103Y2986273D01*
X673834Y3002327D01*
X660727Y3015434D01*
X644674Y3024702D01*
X626769Y3029500D01*
D02*
G37*
G36*
Y2775500D02*
X608232D01*
X590327Y2770702D01*
X574273Y2761434D01*
X561166Y2748327D01*
X551898Y2732273D01*
X547100Y2714368D01*
Y2695832D01*
X551898Y2677927D01*
X561166Y2661873D01*
X574273Y2648766D01*
X590327Y2639498D01*
X608232Y2634700D01*
X626769D01*
X644674Y2639498D01*
X660727Y2648766D01*
X673834Y2661873D01*
X683103Y2677927D01*
X687900Y2695832D01*
Y2714368D01*
X683103Y2732273D01*
X673834Y2748327D01*
X660727Y2761434D01*
X644674Y2770702D01*
X626769Y2775500D01*
D02*
G37*
G36*
X2912769Y2521500D02*
X2894232D01*
X2876327Y2516702D01*
X2860273Y2507434D01*
X2847166Y2494327D01*
X2837898Y2478273D01*
X2833100Y2460368D01*
Y2441832D01*
X2837898Y2423927D01*
X2847166Y2407873D01*
X2860273Y2394766D01*
X2876327Y2385498D01*
X2894232Y2380700D01*
X2912769D01*
X2930674Y2385498D01*
X2946727Y2394766D01*
X2959834Y2407873D01*
X2969103Y2423927D01*
X2973900Y2441832D01*
Y2460368D01*
X2969103Y2478273D01*
X2959834Y2494327D01*
X2946727Y2507434D01*
X2930674Y2516702D01*
X2912769Y2521500D01*
D02*
G37*
G36*
X626769D02*
X608232D01*
X590327Y2516702D01*
X574273Y2507434D01*
X561166Y2494327D01*
X551898Y2478273D01*
X547100Y2460368D01*
Y2441832D01*
X551898Y2423927D01*
X561166Y2407873D01*
X574273Y2394766D01*
X590327Y2385498D01*
X608232Y2380700D01*
X626769D01*
X644674Y2385498D01*
X660727Y2394766D01*
X673834Y2407873D01*
X683103Y2423927D01*
X687900Y2441832D01*
Y2460368D01*
X683103Y2478273D01*
X673834Y2494327D01*
X660727Y2507434D01*
X644674Y2516702D01*
X626769Y2521500D01*
D02*
G37*
G36*
X1956400Y4034700D02*
X1735601D01*
Y3813900D01*
X1784417D01*
Y2396400D01*
X1735601D01*
Y2334383D01*
X1380800D01*
Y2375700D01*
X1175000D01*
Y2169900D01*
X1380800D01*
Y2211217D01*
X1735601D01*
Y2175600D01*
X1956400D01*
Y2396400D01*
X1907584D01*
Y3813900D01*
X1956400D01*
Y4034700D01*
D02*
G37*
G36*
X2210400Y3911600D02*
X1989601D01*
Y3909766D01*
X1997124Y3881687D01*
X2011658Y3856513D01*
X2032213Y3835958D01*
X2038417Y3832376D01*
Y2377924D01*
X2032213Y2374342D01*
X2011658Y2353787D01*
X1997124Y2328613D01*
X1989601Y2300534D01*
Y2298700D01*
X2210400D01*
Y2300534D01*
X2202877Y2328613D01*
X2188342Y2353787D01*
X2167788Y2374342D01*
X2161584Y2377924D01*
Y3832376D01*
X2167788Y3835958D01*
X2188342Y3856513D01*
X2202877Y3881687D01*
X2210400Y3909766D01*
Y3911600D01*
D02*
G37*
G36*
X626769Y2267500D02*
X608232D01*
X590327Y2262702D01*
X574273Y2253434D01*
X561166Y2240327D01*
X551898Y2224273D01*
X547100Y2206368D01*
Y2187832D01*
X551898Y2169927D01*
X561166Y2153873D01*
X574273Y2140766D01*
X590327Y2131498D01*
X608232Y2126700D01*
X626769D01*
X644674Y2131498D01*
X660727Y2140766D01*
X673834Y2153873D01*
X683103Y2169927D01*
X687900Y2187832D01*
Y2206368D01*
X683103Y2224273D01*
X673834Y2240327D01*
X660727Y2253434D01*
X644674Y2262702D01*
X626769Y2267500D01*
D02*
G37*
G36*
Y2013500D02*
X608232D01*
X590327Y2008702D01*
X574273Y1999434D01*
X561166Y1986327D01*
X551898Y1970273D01*
X547100Y1952368D01*
Y1933832D01*
X551898Y1915927D01*
X561166Y1899873D01*
X574273Y1886766D01*
X590327Y1877498D01*
X608232Y1872700D01*
X626769D01*
X644674Y1877498D01*
X660727Y1886766D01*
X673834Y1899873D01*
X683103Y1915927D01*
X687900Y1933832D01*
Y1952368D01*
X683103Y1970273D01*
X673834Y1986327D01*
X660727Y1999434D01*
X644674Y2008702D01*
X626769Y2013500D01*
D02*
G37*
G36*
X604800Y1676400D02*
X548020D01*
X551898Y1661927D01*
X561166Y1645873D01*
X574273Y1632766D01*
X590327Y1623498D01*
X604800Y1619620D01*
Y1676400D01*
D02*
G37*
G36*
X2912769Y1759500D02*
X2894232D01*
X2876327Y1754702D01*
X2860273Y1745434D01*
X2847166Y1732327D01*
X2837898Y1716273D01*
X2833100Y1698368D01*
Y1679832D01*
X2837898Y1661927D01*
X2847166Y1645873D01*
X2860273Y1632766D01*
X2876327Y1623498D01*
X2894232Y1618700D01*
X2912769D01*
X2930674Y1623498D01*
X2946727Y1632766D01*
X2959834Y1645873D01*
X2969103Y1661927D01*
X2973900Y1679832D01*
Y1698368D01*
X2969103Y1716273D01*
X2959834Y1732327D01*
X2946727Y1745434D01*
X2930674Y1754702D01*
X2912769Y1759500D01*
D02*
G37*
G36*
Y1505500D02*
X2894232D01*
X2876327Y1500702D01*
X2860273Y1491434D01*
X2847166Y1478327D01*
X2837898Y1462273D01*
X2833100Y1444368D01*
Y1425832D01*
X2837898Y1407927D01*
X2847166Y1391873D01*
X2860273Y1378766D01*
X2876327Y1369498D01*
X2894232Y1364700D01*
X2912769D01*
X2930674Y1369498D01*
X2946727Y1378766D01*
X2959834Y1391873D01*
X2969103Y1407927D01*
X2973900Y1425832D01*
Y1444368D01*
X2969103Y1462273D01*
X2959834Y1478327D01*
X2946727Y1491434D01*
X2930674Y1500702D01*
X2912769Y1505500D01*
D02*
G37*
G36*
X1291447Y1487700D02*
X1264353D01*
X1238182Y1480688D01*
X1214718Y1467141D01*
X1195560Y1447982D01*
X1182013Y1424518D01*
X1175000Y1398347D01*
Y1371253D01*
X1175478Y1369470D01*
X798454Y992446D01*
X785105Y972467D01*
X780417Y948900D01*
Y675400D01*
X746600D01*
Y484600D01*
X937400D01*
Y675400D01*
X903583D01*
Y923391D01*
X1262570Y1282378D01*
X1264353Y1281900D01*
X1291447D01*
X1317618Y1288913D01*
X1341082Y1302460D01*
X1360241Y1321618D01*
X1373788Y1345082D01*
X1380800Y1371253D01*
Y1398347D01*
X1373788Y1424518D01*
X1360241Y1447982D01*
X1341082Y1467141D01*
X1317618Y1480688D01*
X1291447Y1487700D01*
D02*
G37*
G36*
X2210400Y2273300D02*
X1989601D01*
Y2271466D01*
X1997124Y2243387D01*
X2011658Y2218213D01*
X2032213Y2197658D01*
X2041817Y2192113D01*
Y1054100D01*
X2046505Y1030533D01*
X2059854Y1010554D01*
X2105317Y965091D01*
Y679600D01*
X2071500D01*
Y643683D01*
X1421233D01*
X1408577Y656339D01*
X1386823Y668899D01*
X1362700Y675362D01*
Y580000D01*
Y484638D01*
X1386823Y491102D01*
X1408577Y503661D01*
X1425433Y520517D01*
X2071500D01*
Y488800D01*
X2154200D01*
Y584200D01*
X2166900D01*
Y596900D01*
X2262300D01*
Y679600D01*
X2228483D01*
Y990600D01*
X2223796Y1014167D01*
X2210446Y1034146D01*
X2164983Y1079609D01*
Y2196039D01*
X2167788Y2197658D01*
X2188342Y2218213D01*
X2202877Y2243387D01*
X2210400Y2271466D01*
Y2273300D01*
D02*
G37*
G36*
X1337300Y675362D02*
X1313177Y668899D01*
X1291423Y656339D01*
X1273661Y638577D01*
X1261102Y616823D01*
X1254638Y592700D01*
X1337300D01*
Y675362D01*
D02*
G37*
G36*
X2368535Y2396400D02*
X2339466D01*
X2311388Y2388876D01*
X2286213Y2374342D01*
X2265658Y2353787D01*
X2251124Y2328613D01*
X2243601Y2300534D01*
Y2271466D01*
X2251124Y2243387D01*
X2265658Y2218213D01*
X2286213Y2197658D01*
X2295817Y2192113D01*
Y1320800D01*
X2300505Y1297233D01*
X2313854Y1277254D01*
X2613317Y977791D01*
Y657533D01*
X2598561Y642777D01*
X2586002Y621023D01*
X2579500Y596760D01*
Y571640D01*
X2586002Y547377D01*
X2598561Y525623D01*
X2616323Y507861D01*
X2638077Y495302D01*
X2662341Y488800D01*
X2687460D01*
X2711723Y495302D01*
X2733477Y507861D01*
X2751239Y525623D01*
X2763799Y547377D01*
X2770300Y571640D01*
Y596760D01*
X2763799Y621023D01*
X2751239Y642777D01*
X2736483Y657533D01*
Y1003300D01*
X2731796Y1026867D01*
X2718446Y1046846D01*
X2418983Y1346309D01*
Y2196039D01*
X2421788Y2197658D01*
X2442342Y2218213D01*
X2456877Y2243387D01*
X2464400Y2271466D01*
Y2300534D01*
X2456877Y2328613D01*
X2442342Y2353787D01*
X2421788Y2374342D01*
X2396613Y2388876D01*
X2368535Y2396400D01*
D02*
G37*
G36*
X2262300Y571500D02*
X2179600D01*
Y488800D01*
X2262300D01*
Y571500D01*
D02*
G37*
G36*
X1337300Y567300D02*
X1254638D01*
X1261102Y543177D01*
X1273661Y521423D01*
X1291423Y503661D01*
X1313177Y491102D01*
X1337300Y484638D01*
Y567300D01*
D02*
G37*
%LPD*%
D11*
X617500Y1435100D02*
D03*
Y1689100D02*
D03*
Y1943100D02*
D03*
Y2197100D02*
D03*
Y2451100D02*
D03*
Y2705100D02*
D03*
Y2959100D02*
D03*
Y3213100D02*
D03*
X2903500Y1435100D02*
D03*
Y1689100D02*
D03*
Y1943100D02*
D03*
Y2197100D02*
D03*
Y2451100D02*
D03*
Y2705100D02*
D03*
Y2959100D02*
D03*
Y3213100D02*
D03*
X3379400Y2971800D02*
D03*
Y2717800D02*
D03*
Y2197100D02*
D03*
Y1943100D02*
D03*
D12*
X2674900Y584200D02*
D03*
X1350000Y580000D02*
D03*
D13*
X2166900Y584200D02*
D03*
X842000Y580000D02*
D03*
D14*
X2354000Y3924300D02*
D03*
X2100000D02*
D03*
X2354000Y2286000D02*
D03*
X2100000D02*
D03*
D15*
X1846000Y3924300D02*
D03*
Y2286000D02*
D03*
D16*
X1277900Y1384800D02*
D03*
D17*
Y2272800D02*
D03*
D18*
X3320000Y4500000D02*
D03*
X3280000Y350000D02*
D03*
X190000D02*
D03*
X170000Y4500000D02*
D03*
D19*
X1352100Y582100D02*
X2164800D01*
X2166900Y584200D01*
X1350000Y580000D02*
X1352100Y582100D01*
X2674900Y584200D02*
Y1003300D01*
X842000Y580000D02*
Y948900D01*
X1277900Y1384800D01*
X592100Y4470400D02*
X2192300D01*
X2354000Y4308700D01*
X401600Y1651000D02*
X617500Y1435100D01*
X401600Y4279900D02*
X592100Y4470400D01*
X2354000Y3924300D02*
Y4308700D01*
X401600Y1651000D02*
Y4279900D01*
X1277900Y2272800D02*
X1836200D01*
X1846000Y2286000D02*
Y3924300D01*
X1925600Y4279900D02*
X2103400Y4102100D01*
X884200Y4076700D02*
X1087400Y4279900D01*
X617500Y1689100D02*
X884200Y1955800D01*
Y4076700D01*
X1087400Y4279900D02*
X1925600D01*
X2100000Y3924300D02*
X2103400Y3927700D01*
X2166900Y584200D02*
Y990600D01*
X2100000Y2286000D02*
Y3924300D01*
X2103400Y1054100D02*
Y2286000D01*
Y1054100D02*
X2166900Y990600D01*
X2103400Y3927700D02*
Y4102100D01*
X2357400Y1320800D02*
X2674900Y1003300D01*
X2357400Y1320800D02*
Y2286000D01*
D20*
X2903500Y1943100D02*
X3373400D01*
X2903500Y2197100D02*
X3373400D01*
X2909850Y2711450D02*
X3367050D01*
X2909850Y2965450D02*
X3367050D01*
D21*
Y2711450D02*
X3373400Y2717800D01*
X2903500Y2705100D02*
X2909850Y2711450D01*
X3367050Y2965450D02*
X3373400Y2971800D01*
X2903500Y2959100D02*
X2909850Y2965450D01*
%TF.MD5,da8341d6c06280b5e6c61e411c09efac*%
M02*
