%TF.GenerationSoftware,Altium Limited,Altium Designer,24.7.2 (38)*%
G04 Layer_Color=0*
%FSLAX45Y45*%
%MOMM*%
%TF.SameCoordinates,2370CFE6-064A-4C8F-A3BC-26C693B17082*%
%TF.FilePolarity,Positive*%
%TF.FileFunction,Plated,1,2,PTH,Drill*%
%TF.Part,Single*%
G01*
G75*
%TA.AperFunction,ComponentDrill*%
%ADD32C,0.85000*%
%ADD33C,1.20000*%
%ADD34C,1.10000*%
%ADD35C,1.00000*%
%TA.AperFunction,ViaDrill,NotFilled*%
%ADD36C,3.00000*%
D32*
X617500Y1435100D02*
D03*
Y1689100D02*
D03*
Y1943100D02*
D03*
Y2197100D02*
D03*
Y2451100D02*
D03*
Y2705100D02*
D03*
Y2959100D02*
D03*
Y3213100D02*
D03*
X2903500Y1435100D02*
D03*
Y1689100D02*
D03*
Y1943100D02*
D03*
Y2197100D02*
D03*
Y2451100D02*
D03*
Y2705100D02*
D03*
Y2959100D02*
D03*
Y3213100D02*
D03*
X3379400Y2971800D02*
D03*
Y2717800D02*
D03*
Y2197100D02*
D03*
Y1943100D02*
D03*
D33*
X2674900Y584200D02*
D03*
X2166900D02*
D03*
X1350000Y580000D02*
D03*
X842000D02*
D03*
D34*
X2354000Y3924300D02*
D03*
X2100000D02*
D03*
X1846000D02*
D03*
X2354000Y2286000D02*
D03*
X2100000D02*
D03*
X1846000D02*
D03*
D35*
X1277900Y1384800D02*
D03*
Y2272800D02*
D03*
D36*
X3320000Y4500000D02*
D03*
X3280000Y350000D02*
D03*
X190000D02*
D03*
X170000Y4500000D02*
D03*
%TF.MD5,059611014c0cb83f4364895f78f16ecb*%
M02*
