%TF.GenerationSoftware,Altium Limited,Altium Designer,24.7.2 (38)*%
G04 Layer_Color=16711935*
%FSLAX45Y45*%
%MOMM*%
%TF.SameCoordinates,2370CFE6-064A-4C8F-A3BC-26C693B17082*%
%TF.FilePolarity,Negative*%
%TF.FileFunction,Soldermask,Bot*%
%TF.Part,Single*%
G01*
G75*
%TA.AperFunction,ComponentPad*%
%ADD16C,1.55000*%
%ADD17R,1.55000X1.55000*%
%ADD25C,1.10320*%
%ADD26C,1.60400*%
%ADD27R,1.60400X1.60400*%
%ADD28C,1.90320*%
%ADD29R,1.90320X1.90320*%
%TA.AperFunction,ViaPad*%
%ADD30C,3.20320*%
D16*
X1277900Y1384800D02*
D03*
D17*
Y2272800D02*
D03*
D25*
X617500Y1435100D02*
D03*
Y1689100D02*
D03*
Y1943100D02*
D03*
Y2197100D02*
D03*
Y2451100D02*
D03*
Y2705100D02*
D03*
Y2959100D02*
D03*
Y3213100D02*
D03*
X2903500Y1435100D02*
D03*
Y1689100D02*
D03*
Y1943100D02*
D03*
Y2197100D02*
D03*
Y2451100D02*
D03*
Y2705100D02*
D03*
Y2959100D02*
D03*
Y3213100D02*
D03*
X3379400Y2971800D02*
D03*
Y2717800D02*
D03*
Y2197100D02*
D03*
Y1943100D02*
D03*
D26*
X2674900Y584200D02*
D03*
X1350000Y580000D02*
D03*
D27*
X2166900Y584200D02*
D03*
X842000Y580000D02*
D03*
D28*
X2354000Y3924300D02*
D03*
X2100000D02*
D03*
X2354000Y2286000D02*
D03*
X2100000D02*
D03*
D29*
X1846000Y3924300D02*
D03*
Y2286000D02*
D03*
D30*
X3320000Y4500000D02*
D03*
X3280000Y350000D02*
D03*
X190000D02*
D03*
X170000Y4500000D02*
D03*
%TF.MD5,91cae647b5b48652f011091babf6397d*%
M02*
